<?xml version="1.0" encoding="UTF-8" standalone="no"?>
<!DOCTYPE svg PUBLIC "-//W3C//DTD SVG 1.1//EN" "http://www.w3.org/Graphics/SVG/1.1/DTD/svg11.dtd">
<svg width="100%" height="100%" viewBox="0 0 800 500" version="1.1" xmlns="http://www.w3.org/2000/svg" xmlns:xlink="http://www.w3.org/1999/xlink" xml:space="preserve" xmlns:serif="http://www.serif.com/" style="fill-rule:evenodd;clip-rule:evenodd;stroke-linejoin:round;stroke-miterlimit:2;">
    <g transform="matrix(1,0,0,1,-1808,-1173.72)">
        <g id="Artboard2" transform="matrix(1,0,0,1,799.667,1173.72)">
            <rect x="1008.33" y="0" width="800" height="500" style="fill:none;"/>
            <g transform="matrix(0.743768,0,0,0.743768,-4543.93,-322.747)">
                <g transform="matrix(1,0,0,1,4826.47,-830.403)">
                    <path d="M2784.98,1794.61L2761.33,1794.61C2760.8,1794.61 2760.38,1795.04 2760.38,1795.56L2760.38,1803.12C2760.38,1803.64 2760.8,1804.06 2761.33,1804.06L2806.93,1804.06C2808.28,1804.06 2809.37,1802.97 2809.37,1801.62L2809.37,1511.23C2809.37,1509.88 2808.28,1508.79 2806.93,1508.79L2787.42,1508.79C2786.07,1508.79 2784.98,1509.88 2784.98,1511.23L2784.98,1794.61Z"/>
                </g>
                <g transform="matrix(1,0,0,1,4828.27,-830.417)">
                    <path d="M2878.83,1671.14L2904.53,1671.14C2905.05,1671.14 2905.47,1670.72 2905.47,1670.19L2905.47,1662.63C2905.47,1662.11 2905.05,1661.69 2904.53,1661.69L2881.01,1661.69L2881.01,1378.21C2881.01,1376.87 2879.92,1375.77 2878.57,1375.77L2859.06,1375.77C2857.71,1375.77 2856.62,1376.87 2856.62,1378.21L2856.62,1668.71C2856.62,1670.06 2857.71,1671.15 2859.06,1671.15L2878.57,1671.15C2878.66,1671.15 2878.74,1671.15 2878.83,1671.14Z"/>
                </g>
                <g transform="matrix(0.209,0,0,0.312235,7544.02,417.796)">
                    <path d="M439.346,735.566C439.346,733.896 437.32,732.54 434.825,732.54L327.142,732.54C324.647,732.54 322.621,733.896 322.621,735.566L322.621,759.776C322.621,761.446 324.647,762.802 327.142,762.802L434.825,762.802C437.32,762.802 439.346,761.446 439.346,759.776L439.346,735.566Z" style="fill:rgb(224,152,93);"/>
                </g>
                <g transform="matrix(0.84645,0,0,0.316468,7533.09,599.554)">
                    <path d="M439.625,256.801C439.625,252.546 438.334,249.092 436.743,249.092L413.686,249.092C412.096,249.092 410.804,252.546 410.804,256.801L410.804,754.396C410.804,758.65 412.096,762.104 413.686,762.104L436.743,762.104C438.334,762.104 439.625,758.65 439.625,754.396L439.625,256.801Z" style="fill:rgb(108,108,108);"/>
                </g>
                <g transform="matrix(0.471866,0,0,0.471866,-3307.3,298.832)">
                    <path d="M24021.8,819.598C24021.8,811.19 24014.8,804.363 24006.2,804.363L23881.6,804.363C23873,804.363 23866,811.19 23866,819.598L23866,1133.19C23866,1141.6 23873,1148.43 23881.6,1148.43L24006.2,1148.43C24014.8,1148.43 24021.8,1141.6 24021.8,1133.19L24021.8,819.598ZM23969.9,829.793C23969.9,826.94 23967.5,824.623 23964.7,824.623L23923.3,824.623C23920.5,824.623 23918.2,826.94 23918.2,829.793L23918.2,1123C23918.2,1125.85 23920.5,1128.17 23923.3,1128.17L23964.7,1128.17C23967.5,1128.17 23969.9,1125.85 23969.9,1123L23969.9,829.793Z" style="fill:rgb(108,108,108);"/>
                </g>
                <g transform="matrix(0.209,0,0,0.312235,7813.39,417.796)">
                    <path d="M439.346,735.566C439.346,733.896 437.32,732.54 434.825,732.54L327.142,732.54C324.647,732.54 322.621,733.896 322.621,735.566L322.621,759.776C322.621,761.446 324.647,762.802 327.142,762.802L434.825,762.802C437.32,762.802 439.346,761.446 439.346,759.776L439.346,735.566Z" style="fill:rgb(224,152,93);"/>
                </g>
                <g transform="matrix(1,0,0,1,4830.1,-830.483)">
                    <path d="M2930.7,1671.22L2976.05,1671.22C2976.57,1671.22 2977,1670.8 2977,1670.27L2977,1662.71C2977,1662.19 2976.57,1661.77 2976.05,1661.77L2952.65,1661.77L2952.65,1378.28C2952.65,1376.93 2951.56,1375.84 2950.21,1375.84L2930.7,1375.84C2929.35,1375.84 2928.26,1376.93 2928.26,1378.28L2928.26,1668.78C2928.26,1670.12 2929.35,1671.22 2930.7,1671.22Z"/>
                </g>
                <g transform="matrix(0.209,0,0,0.312235,7764.35,602.563)">
                    <path d="M439.346,735.566C439.346,733.896 437.32,732.54 434.825,732.54L327.142,732.54C324.647,732.54 322.621,733.896 322.621,735.566L322.621,759.776C322.621,761.446 324.647,762.802 327.142,762.802L434.825,762.802C437.32,762.802 439.346,761.446 439.346,759.776L439.346,735.566Z" style="fill:rgb(224,152,93);"/>
                </g>
            </g>
            <g transform="matrix(0.743768,0,0,0.743768,-342.822,-737.221)">
                <g transform="matrix(125,0,0,125,2026.84,1530.92)">
                    <path d="M0.459,-0.018C0.437,-0.01 0.414,-0.003 0.391,0.001C0.368,0.005 0.344,0.007 0.319,0.007C0.241,0.007 0.182,-0.014 0.14,-0.056C0.098,-0.098 0.077,-0.16 0.077,-0.24C0.077,-0.279 0.083,-0.314 0.095,-0.346C0.107,-0.377 0.124,-0.404 0.146,-0.427C0.168,-0.449 0.194,-0.467 0.224,-0.479C0.254,-0.491 0.288,-0.497 0.324,-0.497C0.35,-0.497 0.373,-0.495 0.396,-0.492C0.418,-0.488 0.439,-0.482 0.459,-0.474L0.459,-0.393C0.438,-0.404 0.416,-0.412 0.394,-0.417C0.372,-0.422 0.35,-0.425 0.326,-0.425C0.304,-0.425 0.284,-0.421 0.264,-0.412C0.245,-0.404 0.228,-0.392 0.213,-0.376C0.199,-0.361 0.187,-0.342 0.179,-0.319C0.17,-0.297 0.166,-0.271 0.166,-0.243C0.166,-0.184 0.18,-0.14 0.209,-0.11C0.238,-0.081 0.278,-0.066 0.329,-0.066C0.352,-0.066 0.375,-0.069 0.396,-0.074C0.418,-0.079 0.439,-0.087 0.459,-0.097L0.459,-0.018Z" style="fill:rgb(224,152,93);fill-rule:nonzero;"/>
                </g>
                <g transform="matrix(125,0,0,125,2095.56,1530.92)">
                    <path d="M0.505,-0.249C0.505,-0.211 0.5,-0.176 0.489,-0.144C0.478,-0.113 0.463,-0.085 0.442,-0.063C0.422,-0.04 0.398,-0.023 0.369,-0.01C0.34,0.003 0.307,0.009 0.27,0.009C0.235,0.009 0.203,0.003 0.176,-0.008C0.148,-0.018 0.124,-0.035 0.105,-0.056C0.085,-0.077 0.071,-0.103 0.06,-0.134C0.05,-0.166 0.045,-0.201 0.045,-0.242C0.045,-0.28 0.05,-0.315 0.061,-0.346C0.072,-0.378 0.087,-0.405 0.107,-0.427C0.128,-0.45 0.152,-0.468 0.181,-0.48C0.21,-0.493 0.243,-0.499 0.28,-0.499C0.315,-0.499 0.346,-0.494 0.374,-0.483C0.402,-0.472 0.426,-0.456 0.445,-0.435C0.464,-0.414 0.479,-0.388 0.49,-0.356C0.5,-0.325 0.505,-0.289 0.505,-0.249ZM0.418,-0.245C0.418,-0.275 0.415,-0.302 0.408,-0.324C0.401,-0.347 0.392,-0.366 0.379,-0.381C0.367,-0.396 0.352,-0.408 0.334,-0.415C0.316,-0.423 0.297,-0.427 0.275,-0.427C0.25,-0.427 0.228,-0.422 0.21,-0.412C0.192,-0.402 0.177,-0.389 0.165,-0.372C0.154,-0.355 0.145,-0.336 0.14,-0.314C0.135,-0.292 0.132,-0.269 0.132,-0.245C0.132,-0.215 0.135,-0.188 0.142,-0.166C0.149,-0.143 0.158,-0.124 0.17,-0.109C0.183,-0.094 0.198,-0.082 0.215,-0.074C0.233,-0.067 0.253,-0.063 0.275,-0.063C0.3,-0.063 0.322,-0.068 0.34,-0.078C0.358,-0.088 0.373,-0.101 0.385,-0.118C0.396,-0.134 0.405,-0.154 0.41,-0.176C0.415,-0.198 0.418,-0.221 0.418,-0.245Z" style="fill:rgb(224,152,93);fill-rule:nonzero;"/>
                </g>
                <g transform="matrix(125,0,0,125,2164.29,1530.92)">
                    <path d="M0.078,-0.49L0.154,-0.49L0.157,-0.411C0.172,-0.428 0.185,-0.442 0.199,-0.453C0.212,-0.465 0.225,-0.474 0.238,-0.48C0.251,-0.487 0.264,-0.492 0.277,-0.495C0.291,-0.498 0.305,-0.499 0.319,-0.499C0.369,-0.499 0.407,-0.484 0.433,-0.454C0.459,-0.425 0.472,-0.38 0.472,-0.32L0.472,-0L0.387,-0L0.387,-0.313C0.387,-0.351 0.38,-0.38 0.366,-0.398C0.351,-0.417 0.33,-0.426 0.302,-0.426C0.291,-0.426 0.281,-0.424 0.271,-0.421C0.261,-0.418 0.251,-0.413 0.24,-0.405C0.229,-0.397 0.218,-0.387 0.205,-0.374C0.193,-0.361 0.179,-0.345 0.163,-0.325L0.163,-0L0.078,-0L0.078,-0.49Z" style="fill:rgb(224,152,93);fill-rule:nonzero;"/>
                </g>
                <g transform="matrix(125,0,0,125,2233.01,1530.92)">
                    <path d="M0.466,-0.134C0.466,-0.117 0.463,-0.101 0.458,-0.087C0.452,-0.074 0.444,-0.062 0.434,-0.051C0.424,-0.04 0.412,-0.031 0.398,-0.024C0.385,-0.016 0.371,-0.01 0.356,-0.005C0.341,-0 0.325,0.003 0.309,0.005C0.293,0.008 0.278,0.009 0.262,0.009C0.229,0.009 0.198,0.007 0.171,0.004C0.143,0.001 0.116,-0.003 0.089,-0.01L0.089,-0.088C0.118,-0.08 0.146,-0.074 0.174,-0.069C0.203,-0.065 0.231,-0.063 0.259,-0.063C0.299,-0.063 0.33,-0.069 0.349,-0.08C0.369,-0.091 0.378,-0.106 0.378,-0.127C0.378,-0.136 0.377,-0.144 0.374,-0.151C0.371,-0.158 0.365,-0.164 0.357,-0.171C0.349,-0.177 0.336,-0.184 0.319,-0.19C0.302,-0.197 0.279,-0.205 0.249,-0.214C0.227,-0.22 0.206,-0.228 0.188,-0.236C0.169,-0.244 0.153,-0.254 0.139,-0.266C0.125,-0.277 0.115,-0.29 0.107,-0.306C0.099,-0.321 0.095,-0.339 0.095,-0.36C0.095,-0.374 0.098,-0.389 0.105,-0.405C0.111,-0.421 0.122,-0.436 0.137,-0.45C0.153,-0.464 0.173,-0.476 0.199,-0.485C0.225,-0.494 0.258,-0.499 0.297,-0.499C0.316,-0.499 0.337,-0.498 0.361,-0.496C0.384,-0.494 0.409,-0.49 0.434,-0.485L0.434,-0.409C0.407,-0.416 0.382,-0.42 0.358,-0.424C0.334,-0.427 0.313,-0.428 0.296,-0.428C0.275,-0.428 0.257,-0.427 0.242,-0.423C0.228,-0.42 0.216,-0.416 0.207,-0.41C0.198,-0.404 0.192,-0.398 0.188,-0.39C0.184,-0.382 0.182,-0.374 0.182,-0.365C0.182,-0.356 0.184,-0.348 0.187,-0.341C0.191,-0.334 0.197,-0.327 0.206,-0.321C0.216,-0.314 0.229,-0.307 0.245,-0.301C0.262,-0.294 0.283,-0.287 0.31,-0.279C0.339,-0.27 0.363,-0.261 0.383,-0.252C0.403,-0.243 0.419,-0.233 0.432,-0.221C0.444,-0.21 0.453,-0.197 0.458,-0.183C0.464,-0.168 0.466,-0.152 0.466,-0.134Z" style="fill:rgb(224,152,93);fill-rule:nonzero;"/>
                </g>
                <g transform="matrix(125,0,0,125,2301.74,1530.92)">
                    <path d="M0.472,-0L0.396,-0L0.393,-0.079C0.378,-0.062 0.365,-0.048 0.351,-0.037C0.338,-0.026 0.325,-0.017 0.312,-0.01C0.299,-0.003 0.286,0.002 0.273,0.005C0.26,0.007 0.246,0.009 0.231,0.009C0.181,0.009 0.142,-0.006 0.117,-0.036C0.091,-0.065 0.078,-0.11 0.078,-0.17L0.078,-0.49L0.163,-0.49L0.163,-0.177C0.163,-0.102 0.191,-0.064 0.248,-0.064C0.258,-0.064 0.269,-0.066 0.279,-0.069C0.288,-0.072 0.299,-0.077 0.31,-0.085C0.321,-0.092 0.332,-0.103 0.345,-0.116C0.358,-0.129 0.372,-0.145 0.387,-0.165L0.387,-0.49L0.472,-0.49L0.472,-0Z" style="fill:rgb(224,152,93);fill-rule:nonzero;"/>
                </g>
                <g transform="matrix(125,0,0,125,2370.46,1530.92)">
                    <path d="M0.245,-0.62L0.1,-0.62L0.1,-0.69L0.331,-0.69L0.331,-0.071L0.477,-0.071L0.477,-0L0.084,-0L0.084,-0.071L0.245,-0.071L0.245,-0.62Z" style="fill:rgb(224,152,93);fill-rule:nonzero;"/>
                </g>
                <g transform="matrix(125,0,0,125,2439.19,1530.92)">
                    <path d="M0.473,-0.007C0.454,-0.002 0.434,0.002 0.414,0.004C0.393,0.006 0.372,0.007 0.351,0.007C0.29,0.007 0.244,-0.007 0.213,-0.035C0.183,-0.063 0.168,-0.105 0.168,-0.163L0.168,-0.419L0.031,-0.419L0.031,-0.49L0.168,-0.49L0.168,-0.625L0.253,-0.647L0.253,-0.49L0.473,-0.49L0.473,-0.419L0.253,-0.419L0.253,-0.17C0.253,-0.135 0.262,-0.108 0.281,-0.091C0.3,-0.074 0.327,-0.065 0.364,-0.065C0.379,-0.065 0.396,-0.066 0.415,-0.069C0.434,-0.071 0.453,-0.075 0.473,-0.08L0.473,-0.007Z" style="fill:rgb(224,152,93);fill-rule:nonzero;"/>
                </g>
                <g transform="matrix(125,0,0,125,2507.92,1530.92)">
                    <path d="M0.393,-0L0.391,-0.066C0.364,-0.04 0.337,-0.021 0.31,-0.009C0.282,0.003 0.253,0.009 0.223,0.009C0.195,0.009 0.171,0.005 0.151,-0.002C0.132,-0.009 0.115,-0.019 0.102,-0.031C0.089,-0.044 0.08,-0.059 0.074,-0.076C0.068,-0.093 0.065,-0.111 0.065,-0.131C0.065,-0.18 0.083,-0.219 0.12,-0.246C0.156,-0.274 0.211,-0.288 0.282,-0.288L0.384,-0.288L0.384,-0.331C0.384,-0.36 0.375,-0.383 0.356,-0.401C0.337,-0.418 0.309,-0.427 0.271,-0.427C0.243,-0.427 0.216,-0.424 0.189,-0.417C0.162,-0.411 0.135,-0.403 0.106,-0.391L0.106,-0.468C0.117,-0.472 0.129,-0.476 0.142,-0.479C0.155,-0.483 0.169,-0.486 0.184,-0.489C0.198,-0.492 0.214,-0.495 0.229,-0.496C0.245,-0.498 0.262,-0.499 0.278,-0.499C0.307,-0.499 0.334,-0.496 0.358,-0.489C0.382,-0.483 0.402,-0.473 0.418,-0.459C0.435,-0.446 0.447,-0.429 0.456,-0.409C0.465,-0.389 0.469,-0.365 0.469,-0.338L0.469,-0L0.393,-0ZM0.384,-0.223L0.276,-0.223C0.255,-0.223 0.236,-0.221 0.221,-0.217C0.206,-0.213 0.193,-0.207 0.184,-0.199C0.174,-0.191 0.167,-0.182 0.162,-0.171C0.157,-0.16 0.155,-0.147 0.155,-0.134C0.155,-0.124 0.156,-0.115 0.159,-0.107C0.162,-0.098 0.167,-0.09 0.173,-0.084C0.18,-0.077 0.188,-0.072 0.199,-0.068C0.209,-0.064 0.222,-0.062 0.237,-0.062C0.256,-0.062 0.279,-0.068 0.304,-0.08C0.329,-0.092 0.356,-0.111 0.384,-0.136L0.384,-0.223Z" style="fill:rgb(224,152,93);fill-rule:nonzero;"/>
                </g>
                <g transform="matrix(125,0,0,125,2576.64,1530.92)">
                    <path d="M0.078,-0.49L0.154,-0.49L0.157,-0.411C0.172,-0.428 0.185,-0.442 0.199,-0.453C0.212,-0.465 0.225,-0.474 0.238,-0.48C0.251,-0.487 0.264,-0.492 0.277,-0.495C0.291,-0.498 0.305,-0.499 0.319,-0.499C0.369,-0.499 0.407,-0.484 0.433,-0.454C0.459,-0.425 0.472,-0.38 0.472,-0.32L0.472,-0L0.387,-0L0.387,-0.313C0.387,-0.351 0.38,-0.38 0.366,-0.398C0.351,-0.417 0.33,-0.426 0.302,-0.426C0.291,-0.426 0.281,-0.424 0.271,-0.421C0.261,-0.418 0.251,-0.413 0.24,-0.405C0.229,-0.397 0.218,-0.387 0.205,-0.374C0.193,-0.361 0.179,-0.345 0.163,-0.325L0.163,-0L0.078,-0L0.078,-0.49Z" style="fill:rgb(224,152,93);fill-rule:nonzero;"/>
                </g>
                <g transform="matrix(125,0,0,125,2645.37,1530.92)">
                    <path d="M0.459,-0.018C0.437,-0.01 0.414,-0.003 0.391,0.001C0.368,0.005 0.344,0.007 0.319,0.007C0.241,0.007 0.182,-0.014 0.14,-0.056C0.098,-0.098 0.077,-0.16 0.077,-0.24C0.077,-0.279 0.083,-0.314 0.095,-0.346C0.107,-0.377 0.124,-0.404 0.146,-0.427C0.168,-0.449 0.194,-0.467 0.224,-0.479C0.254,-0.491 0.288,-0.497 0.324,-0.497C0.35,-0.497 0.373,-0.495 0.396,-0.492C0.418,-0.488 0.439,-0.482 0.459,-0.474L0.459,-0.393C0.438,-0.404 0.416,-0.412 0.394,-0.417C0.372,-0.422 0.35,-0.425 0.326,-0.425C0.304,-0.425 0.284,-0.421 0.264,-0.412C0.245,-0.404 0.228,-0.392 0.213,-0.376C0.199,-0.361 0.187,-0.342 0.179,-0.319C0.17,-0.297 0.166,-0.271 0.166,-0.243C0.166,-0.184 0.18,-0.14 0.209,-0.11C0.238,-0.081 0.278,-0.066 0.329,-0.066C0.352,-0.066 0.375,-0.069 0.396,-0.074C0.418,-0.079 0.439,-0.087 0.459,-0.097L0.459,-0.018Z" style="fill:rgb(224,152,93);fill-rule:nonzero;"/>
                </g>
                <g transform="matrix(125,0,0,125,2714.09,1530.92)">
                    <path d="M0.514,-0.49L0.347,-0.052C0.33,-0.007 0.312,0.031 0.294,0.063C0.275,0.096 0.255,0.122 0.233,0.143C0.212,0.163 0.188,0.179 0.162,0.188C0.136,0.198 0.106,0.203 0.074,0.203C0.066,0.203 0.058,0.203 0.051,0.203C0.044,0.202 0.037,0.202 0.029,0.201L0.029,0.124C0.036,0.125 0.044,0.126 0.052,0.127C0.061,0.128 0.07,0.128 0.079,0.128C0.095,0.128 0.109,0.126 0.123,0.121C0.136,0.117 0.149,0.109 0.161,0.099C0.173,0.089 0.185,0.075 0.196,0.059C0.207,0.043 0.218,0.023 0.228,-0L0.032,-0.49L0.129,-0.49L0.253,-0.166L0.278,-0.09L0.306,-0.168L0.421,-0.49L0.514,-0.49Z" style="fill:rgb(224,152,93);fill-rule:nonzero;"/>
                </g>
            </g>
        </g>
    </g>
</svg>
